<svg xmlns="http://www.w3.org/2000/svg" viewBox="0 0 320 240" fill="none" role="img" aria-labelledby="emptyBookingsTitle">
  <title id="emptyBookingsTitle">No bookings yet</title>
  <defs>
    <linearGradient id="sky" x1="40" y1="20" x2="280" y2="220" gradientUnits="userSpaceOnUse">
      <stop stop-color="#FFF4EF"/>
      <stop offset="1" stop-color="#F7E8E1"/>
    </linearGradient>
    <linearGradient id="dress" x1="150" y1="70" x2="210" y2="190" gradientUnits="userSpaceOnUse">
      <stop stop-color="#F25123"/>
      <stop offset="1" stop-color="#C93A12"/>
    </linearGradient>
  </defs>
  <rect x="24" y="24" width="272" height="192" rx="28" fill="url(#sky)"/>
  <circle cx="78" cy="68" r="18" fill="#FFD8C8" opacity=".85"/>
  <circle cx="250" cy="176" r="28" fill="#FFE7DC" opacity=".9"/>
  <!-- ticket / booking card -->
  <g transform="translate(48 78)">
    <rect x="0" y="0" width="108" height="78" rx="14" fill="#fff" stroke="#E8D5CB" stroke-width="2"/>
    <path d="M108 28c-6 0-10 4-10 11s4 11 10 11" stroke="#E8D5CB" stroke-width="2"/>
    <path d="M18 20h48M18 34h36M18 48h42" stroke="#F25123" stroke-width="3" stroke-linecap="round" opacity=".55"/>
    <circle cx="86" cy="22" r="7" fill="#FFE0D4"/>
  </g>
  <!-- hanger + dress -->
  <g transform="translate(168 54)">
    <path d="M54 18c0-8 6-14 14-14s14 6 14 14" stroke="#6B7280" stroke-width="3" stroke-linecap="round"/>
    <path d="M8 34h112" stroke="#6B7280" stroke-width="3" stroke-linecap="round"/>
    <path d="M64 18v16" stroke="#6B7280" stroke-width="3" stroke-linecap="round"/>
    <path d="M28 40c10 6 22 8 36 8s26-2 36-8l10 96c-14 14-34 22-46 22s-32-8-46-22l10-96z" fill="url(#dress)"/>
    <path d="M48 78h32" stroke="#fff" stroke-width="3" stroke-linecap="round" opacity=".45"/>
  </g>
  <!-- spark marks -->
  <path d="M112 52l3 7 7 3-7 3-3 7-3-7-7-3 7-3 3-7z" fill="#F25123" opacity=".35"/>
  <path d="M236 48l2 5 5 2-5 2-2 5-2-5-5-2 5-2 2-5z" fill="#F25123" opacity=".45"/>
</svg>
